# xmcd
#
# Track frame offsets: 
#        404
#        15067
#        27197
#        38826
#        52060
#        69622
#        83431
#        96536
#        110956
#        121102
#        137791
#        152196
#        163459
#        184250
#        199026
#
# Disc length: 3020 seconds
#
# Revision: 3
# Processed by: cddbd v1.5.1PL0 Copyright (c) Steve Scherf et al.
# Submitted via: ExactAudioCopy v0.95a5
#
DISCID=d10bc70f
DTITLE=Black Bottom Skiffle Group - Host Denn Du Mein' Briaf ned Griag
DTITLE=t
DYEAR=1900
DGENRE=Easy Listening
TTITLE0=Polka auf am Banjo
TTITLE1=Schöne Frau'n
TTITLE2=(Last Night) We had a Party
TTITLE3=I und der Niedermeier
TTITLE4=Freid mi, dass Di freid, dass mi freid
TTITLE5=In der Börban Striieet
TTITLE6=Mexijoe
TTITLE7=Nia im Leb'm werd' I Di Vergess'n
TTITLE8=Let Me Go
TTITLE9=Duelling Banjos, a so a feine Bande
TTITLE10=Host denn Du mein' Briaf ned griagt
TTITLE11=Route 66
TTITLE12=Wenn i Di mal Brauch'
TTITLE13=High Weh
TTITLE14=When the Saints, Down by the Riverside, Ice Cream, Yes Sir, M
TTITLE14=argie
EXTD=
EXTT0=
EXTT1=
EXTT2=
EXTT3=
EXTT4=
EXTT5=
EXTT6=
EXTT7=
EXTT8=
EXTT9=
EXTT10=
EXTT11=
EXTT12=
EXTT13=
EXTT14=
PLAYORDER=
